 <svg fill="#000" height="40" viewBox="0 0 24 24" width="40" xmlns="http://www.w3.org/2000/svg">
                <path clip-rule="evenodd"
                    d="m2.25 6c0-.41421.33579-.75.75-.75h18c.4142 0 .75.33579.75.75s-.3358.75-.75.75h-18c-.41421 0-.75-.33579-.75-.75zm0 4c0-.41421.33579-.75.75-.75h18c.4142 0 .75.33579.75.75 0 .4142-.3358.75-.75.75h-18c-.41421 0-.75-.3358-.75-.75zm0 4c0-.4142.33579-.75.75-.75h7c.4142 0 .75.3358.75.75s-.3358.75-.75.75h-7c-.41421 0-.75-.3358-.75-.75zm11.1806.5119c.2695-.3145.743-.3509 1.0575-.0813l3.0119 2.5816 3.0119-2.5816c.3145-.2696.788-.2332 1.0575.0813.2696.3145.2332.788-.0813 1.0575l-3.5 3c-.2809.2408-.6953.2408-.9762 0l-3.5-3c-.3145-.2695-.3509-.743-.0813-1.0575zm-11.1806 3.4881c0-.4142.33579-.75.75-.75h7c.4142 0 .75.3358.75.75s-.3358.75-.75.75h-7c-.41421 0-.75-.3358-.75-.75z"
                    fill="#1c274c" fill-rule="evenodd" />
            </svg>