
<svg fill="none" height="10" viewBox="0 0 24 24" width="10" xmlns="http://www.w3.org/2000/svg"><g fill="#1c274c"><path d="m12.0789 2.25c-4.7935 0-8.73412 3.663-9.11835 8.3333h-.96053c-.30388 0-.57773.1834-.69347.4644s-.05049.604.16523.818l1.67981 1.6667c.29241.2901.76408.2901 1.05649 0l1.67981-1.6667c.21572-.214.28097-.537.16523-.818s-.38959-.4644-.69347-.4644h-.89285c.37972-3.83163 3.63799-6.8333 7.6121-6.8333 2.7695 0 5.1938 1.45845 6.5367 3.64279.2169.35286.6788.46306 1.0317.24613s.4631-.67885.2461-1.03171c-1.6063-2.61294-4.5061-4.35721-7.8145-4.35721z"/><path d="m20.8411 10.4666c-.2921-.2888-.7622-.2888-1.0544 0l-1.6862 1.6667c-.2164.2138-.2821.537-.1666.8184.1156.2813.3896.465.6938.465h.8991c-.3813 3.8295-3.6509 6.8333-7.644 6.8333-2.78254 0-5.21694-1.4597-6.56484-3.6439-.21754-.3525-.67963-.4619-1.03213-.2443-.35249.2175-.4619.6796-.24437 1.0321 1.61261 2.6131 4.5226 4.3561 7.84134 4.3561 4.8078 0 8.7647-3.6608 9.1503-8.3333h.9671c.3041 0 .5781-.1837.6937-.465.1156-.2814.0498-.6046-.1665-.8184z"/></g></svg>