<svg fill="none" height="40" viewBox="0 0 24 24" width="40" xmlns="http://www.w3.org/2000/svg"><g fill="#1c274c"><path d="m19.9001 2.30719c-.1609-.40959-.7385-.40959-.8994 0l-.4304 1.09528c-.0491.12505-.1477.22404-.2723.27336l-1.0913.43197c-.4081.16154-.4081.7412 0 .90274l1.0913.43198c.1246.04932.2232.1483.2723.27335l.4304 1.09528c.1609.40959.7385.40959.8994.00001l.4304-1.09529c.0491-.12505.1477-.22403.2723-.27335l1.0913-.43198c.4081-.16154.4081-.7412 0-.90274l-1.0913-.43197c-.1246-.04932-.2232-.14831-.2723-.27336z"/><path d="m16.0328 8.12967c-.161-.40958-.7385-.40958-.8995 0l-.1569.39935c-.0491.12505-.1477.22403-.2723.27335l-.3979.1575c-.4081.16154-.4081.7412 0 .90274l.3979.15749c.1246.0493.2232.1483.2723.2734l.1569.3993c.161.4096.7385.4096.8995 0l.1569-.3993c.0491-.1251.1477-.2241.2723-.2734l.3979-.15749c.4081-.16154.4081-.7412 0-.90274l-.3979-.1575c-.1246-.04932-.2232-.1483-.2723-.27335z"/><path d="m12 22c5.5228 0 10-4.4772 10-10 0-.4627-.6935-.5392-.9328-.1432-1.1383 1.8838-3.2057 3.1432-5.5672 3.1432-3.5899 0-6.5-2.9101-6.5-6.5 0-2.36155 1.2594-4.42895 3.1432-5.56724.396-.23929.3195-.93276-.1432-.93276-5.52285 0-10 4.47715-10 10 0 5.5228 4.47715 10 10 10z"/></g></svg>