<svg fill="none" height="40" viewBox="0 0 24 24" width="40" xmlns="http://www.w3.org/2000/svg"><g fill="#1c274c"><path d="m17 12c0 2.7614-2.2386 5-5 5-2.76142 0-5-2.2386-5-5 0-2.76142 2.23858-5 5-5 2.7614 0 5 2.23858 5 5z"/><path clip-rule="evenodd" d="m12 1.25c.4142 0 .75.33579.75.75v2c0 .41421-.3358.75-.75.75s-.75-.33579-.75-.75v-2c0-.41421.3358-.75.75-.75zm-8.33135 2.46609c.2795-.3057.7539-.32694 1.0596-.04744l2.22201 2.03159c.3057.2795.32694.75389.04744 1.05959s-.7539.32694-1.0596.04744l-2.22201-2.03158c-.3057-.2795-.32694-.7539-.04744-1.0596zm16.66275 0c.2795.3057.2582.7801-.0475 1.0596l-2.222 2.03158c-.3057.2795-.7801.25826-1.0596-.04744s-.2583-.78009.0474-1.05959l2.2221-2.03159c.3057-.2795.78-.25826 1.0596.04744zm-19.0814 8.28391c0-.4142.33579-.75.75-.75h2c.41421 0 .75.3358.75.75s-.33579.75-.75.75h-2c-.41421 0-.75-.3358-.75-.75zm18 0c0-.4142.3358-.75.75-.75h2c.4142 0 .75.3358.75.75s-.3358.75-.75.75h-2c-.4142 0-.75-.3358-.75-.75zm-2.2245 5.0252c.2929-.2929.7678-.2929 1.0607 0l2.222 2.2223c.2929.2929.2928.7678-.0001 1.0607s-.7678.2928-1.0606-.0001l-2.222-2.2223c-.2929-.2929-.2929-.7677 0-1.0606zm-10.05083.0001c.29289.2929.29289.7678 0 1.0607l-2.22223 2.2222c-.29289.2929-.76776.2929-1.06066 0-.29289-.2929-.29289-.7678 0-1.0606l2.22223-2.2223c.29289-.2929.76776-.2929 1.06066 0zm5.02533 2.2247c.4142 0 .75.3358.75.75v2c0 .4142-.3358.75-.75.75s-.75-.3358-.75-.75v-2c0-.4142.3358-.75.75-.75z" fill-rule="evenodd"/></g></svg>